<?xml version="1.0" encoding="UTF-8"?><svg xmlns="http://www.w3.org/2000/svg" xmlns:xlink="http://www.w3.org/1999/xlink"><symbol viewBox="0 -64.3 55.51 150.08" id="logo_texte" xmlns="http://www.w3.org/2000/svg"><g fill="#00465b"><path class="ast331" d="M10.715 10.345c0 2.011-.397 3.228-1.244 3.995-.846.794-2.09 1.059-3.175 1.059-1.058 0-2.196-.265-2.91-.715l.397-1.217c.582.37 1.481.688 2.566.688 1.614 0 2.831-.846 2.831-3.042v-.98h-.026c-.476.82-1.429 1.456-2.778 1.456-2.17 0-3.73-1.852-3.73-4.26 0-2.963 1.93-4.657 3.941-4.657 1.508 0 2.355.794 2.726 1.509h.026l.08-1.323h1.402c-.027.635-.08 1.349-.08 2.407v5.08zM9.154 6.297a2.95 2.95 0 00-.08-.714c-.29-.926-1.058-1.693-2.222-1.693-1.508 0-2.593 1.296-2.593 3.307 0 1.72.873 3.148 2.593 3.148.979 0 1.852-.608 2.196-1.614.08-.264.132-.582.132-.846V6.297zM21.272 7.144c0 3.228-2.25 4.656-4.366 4.656-2.355 0-4.18-1.746-4.18-4.497 0-2.937 1.905-4.657 4.339-4.657 2.513 0 4.207 1.826 4.207 4.498zm-6.932.106c0 1.905 1.11 3.36 2.645 3.36 1.508 0 2.646-1.429 2.646-3.387 0-1.481-.74-3.36-2.62-3.36S14.34 5.583 14.34 7.25zM29.5 11.271c-.423.212-1.35.53-2.514.53-2.645 0-4.365-1.8-4.365-4.472 0-2.699 1.852-4.657 4.71-4.657.952 0 1.772.239 2.195.45l-.37 1.217c-.37-.211-.979-.423-1.852-.423-2.01 0-3.096 1.482-3.096 3.307 0 2.038 1.297 3.281 3.043 3.281.9 0 1.508-.238 1.958-.423zM31.378 5.583c0-1.032-.026-1.905-.079-2.725h1.402l.053 1.72h.08c.397-1.165 1.349-1.906 2.434-1.906.185 0 .317.027.45.053v1.508a2.975 2.975 0 00-.53-.052c-1.11 0-1.905.846-2.143 2.037-.026.211-.079.476-.079.74v4.657h-1.588zM52.862 7.144c0 3.228-2.249 4.656-4.365 4.656-2.355 0-4.18-1.746-4.18-4.497 0-2.937 1.904-4.657 4.339-4.657 2.513 0 4.206 1.826 4.206 4.498zm-6.932.106c0 1.905 1.112 3.36 2.646 3.36 1.508 0 2.646-1.429 2.646-3.387 0-1.481-.74-3.36-2.62-3.36S45.93 5.583 45.93 7.25z"/><g><path class="ast331" d="M7.751 17.224v1.588H7.54v-1.588zM11.138 18.759c-.08.026-.238.08-.45.08-.476 0-.846-.292-.846-.794s.37-.82.9-.82c.21 0 .343.052.396.079l-.053.158a1.174 1.174 0 00-.344-.052c-.397 0-.661.238-.661.661 0 .397.238.635.661.635.133 0 .265-.026.37-.053zM14.101 18.071h-.661v.582h.74v.159h-.978v-1.588h.926v.16h-.715v.502h.662v.185zM19.472 18.071h-.661v.582h.74v.159h-.978v-1.588h.926v.16h-.715v.502h.662v.185zM22.568 18.812l-.212-.344c-.08-.132-.158-.212-.211-.318-.053.08-.106.186-.186.318l-.211.344h-.265l.53-.794-.503-.794h.264l.238.37c.053.107.106.186.16.265.052-.105.078-.158.158-.264l.238-.37h.265l-.53.767.53.82zM24.87 17.25c.106-.026.238-.026.423-.026.212 0 .37.053.476.133s.16.185.16.344a.503.503 0 01-.133.344c-.106.105-.318.185-.53.185-.079 0-.132 0-.185-.027v.635h-.211zm.211.742c.053 0 .106.026.186.026.264 0 .423-.132.423-.344s-.159-.317-.397-.317c-.106 0-.159 0-.212.026zM28.918 18.071h-.662v.582h.741v.159h-.979v-1.588h.926v.16h-.714v.502h.661v.185zM31.061 17.25c.106-.026.265-.026.423-.026.238 0 .397.053.503.133.08.079.132.185.132.29 0 .212-.132.345-.317.398.132.052.211.158.264.317.053.212.106.37.133.423h-.238a1.285 1.285 0 01-.106-.37c-.053-.212-.133-.291-.344-.318h-.212v.688h-.212v-1.534zm.212.715h.238c.238 0 .397-.132.397-.29 0-.213-.16-.292-.397-.292-.106 0-.185 0-.212.027v.555zM34.448 17.224v1.588h-.212v-1.588zM37.517 18.071h-.662v.582h.741v.159h-.979v-1.588h.926v.16h-.714v.502h.661v.185zM39.66 18.812v-1.588h.238l.556.794c.132.185.238.344.317.503-.026-.212-.026-.397-.026-.662v-.661h.211v1.587h-.211l-.556-.793a2.803 2.803 0 01-.318-.53c0 .212.027.397.027.662v.688zM44.343 18.759c-.08.026-.238.08-.45.08-.476 0-.847-.292-.847-.794s.37-.82.9-.82c.212 0 .344.052.397.079l-.053.158a1.174 1.174 0 00-.344-.052c-.397 0-.661.238-.661.661 0 .397.238.635.661.635.132 0 .265-.026.37-.053zM47.306 18.071h-.661v.582h.74v.159h-.978v-1.588h.926v.16h-.715v.502h.662v.185z"/></g><g><path class="ast331" d="M38.02 3.07c.158.185 1.11 1.507 2.91 3.942.423.502.608.873.608 1.137v6.27c0 .08 0 .16-.026.265-.185.45-.503.688-.9.688l-.211-.026c-.477-.159-.715-.476-.715-.926V8.467L36.908 4.71c-.317-.397-.502-.715-.502-.953v-.026c0-.053 0-.106.026-.185.185-.503.476-.741.9-.741.238-.027.476.08.687.264zm6.032-.265c.476.159.714.45.714.9v.026c0 .106-.026.211-.08.37-.237.37-.502.556-.82.556-.105-.027-.185-.027-.29-.053-.45-.185-.662-.476-.662-.873 0-.133.027-.238.053-.318.212-.45.503-.661.873-.661.053.026.132.026.212.053z"/></g><g><path class="ast332" d="M51.143 17.145c.264 0 .476.185.476.423s-.212.424-.476.424-.503-.186-.503-.424.238-.423.503-.423zm0 .08c-.212 0-.37.158-.37.317 0 .185.158.317.37.317s.37-.158.37-.317c0-.185-.159-.318-.37-.318zm-.08.529h-.106v-.424c.053 0 .106-.026.186-.026s.132 0 .158.026.053.053.053.08c0 .052-.053.079-.106.105.053 0 .08.053.08.106.026.053.026.08.026.106h-.132c-.026-.026-.026-.053-.026-.106s-.027-.053-.106-.053h-.053v.186zm0-.212h.053c.053 0 .106-.027.106-.053s-.026-.053-.106-.053h-.053z"/></g></g></symbol></svg>